<?xml version="1.0" encoding="UTF-8"?>
<svg id="Layer_2" data-name="Layer 2" xmlns="http://www.w3.org/2000/svg" xmlns:xlink="http://www.w3.org/1999/xlink" viewBox="0 0 639.45 283.93">
  <defs>
    <style>
      .cls-1 {
        fill: url(#linear-gradient);
      }

      .cls-1, .cls-2, .cls-3, .cls-4, .cls-5 {
        stroke-width: 0px;
      }

      .cls-2 {
        fill: url(#linear-gradient-2);
      }

      .cls-3 {
        fill: url(#linear-gradient-3);
      }

      .cls-4 {
        fill: #2d2d2d;
      }

      .cls-5 {
        fill: url(#linear-gradient-4);
      }
    </style>
    <linearGradient id="linear-gradient" x1="392.48" y1="361.66" x2="645.84" y2="15.61" gradientUnits="userSpaceOnUse">
      <stop offset=".04" stop-color="#5855a4"/>
      <stop offset="1" stop-color="#7ed0e6"/>
    </linearGradient>
    <linearGradient id="linear-gradient-2" x1="596.01" y1="19.56" x2="608.46" y2="184.28" gradientUnits="userSpaceOnUse">
      <stop offset="0" stop-color="#000" stop-opacity="0"/>
      <stop offset="1" stop-color="#000"/>
    </linearGradient>
    <linearGradient id="linear-gradient-3" x1="516.97" y1="256.31" x2="432.96" y2="62.79" xlink:href="#linear-gradient-2"/>
    <linearGradient id="linear-gradient-4" x1="392.84" y1="361.91" x2="646.19" y2="15.87" xlink:href="#linear-gradient"/>
  </defs>
  <g id="Layer_1-2" data-name="Layer 1">
    <g>
      <g>
        <g>
          <path class="cls-4" d="M138.71,142.16c0,38.4-26.23,69.49-69.49,69.49S0,180.56,0,142.16s26.5-69.49,68.95-69.49,69.76,31.37,69.76,69.49ZM32.99,142.16c0,20.28,12.17,39.21,36.23,39.21s36.23-18.93,36.23-39.21-14.06-39.48-36.23-39.48c-23.79,0-36.23,19.47-36.23,39.48Z"/>
          <path class="cls-4" d="M161.43,264.38V75.37h30.83l2.16,18.39c10.27-14.87,28.12-21.36,43.26-21.36,41.1,0,68.41,30.55,68.41,69.76s-24.61,69.76-67.33,69.76c-14.06,0-34.88-4.33-44.35-18.93v71.38h-32.99ZM273.1,142.16c0-20.82-14.06-37.86-37.86-37.86s-37.86,17.03-37.86,37.86,15.41,37.85,37.86,37.85,37.86-17.03,37.86-37.85Z"/>
          <path class="cls-4" d="M417.5,110.79c-9.46-8.92-20.28-11.9-32.99-11.9-15.68,0-24.34,4.87-24.34,13.25s7.84,13.52,24.88,14.6c25.15,1.62,57.05,7.3,57.05,42.72,0,23.52-19.2,43.81-57.33,43.81-21.09,0-42.18-3.52-61.65-23.8l16.22-23.52c9.46,10.54,31.1,18.39,45.97,18.66,12.44.27,24.06-6.22,24.06-15.95,0-9.19-7.57-12.98-26.5-14.06-25.15-1.89-55.16-11.09-55.16-41.37s31.91-41.64,56.24-41.64c20.82,0,36.5,4.05,51.92,17.57l-18.39,21.63Z"/>
        </g>
        <path class="cls-1" d="M553.33,283.93c-47.49,0-86.12-38.63-86.12-86.12v-111.69c0-47.49,38.63-86.12,86.12-86.12s86.12,38.63,86.12,86.12v111.69c0,47.49-38.63,86.12-86.12,86.12ZM553.33,28.89c-31.56,0-57.23,25.67-57.23,57.23v111.69c0,31.56,25.67,57.23,57.23,57.23s57.23-25.67,57.23-57.23v-111.69c0-31.56-25.67-57.23-57.23-57.23Z"/>
      </g>
      <path class="cls-2" d="M558.07.14v28.97c29.35,2.42,52.49,27.06,52.49,57.02v49.99h28.89v-49.99c0-45.9-36.09-83.52-81.38-85.99Z"/>
      <path class="cls-3" d="M548.59,283.93v-28.97c-29.35-2.42-52.49-27.06-52.49-57.02v-49.99h-28.89v49.99c0,45.9,36.09,83.52,81.38,85.99Z"/>
      <path class="cls-5" d="M553.33,228.83c-47.49,0-86.12-38.63-86.12-86.12s38.63-86.12,86.12-86.12,86.12,38.63,86.12,86.12-38.63,86.12-86.12,86.12ZM553.33,85.61c-31.49,0-57.1,25.61-57.1,57.1s25.61,57.1,57.1,57.1,57.1-25.62,57.1-57.1-25.61-57.1-57.1-57.1Z"/>
    </g>
  </g>
</svg>