<?xml version="1.0" encoding="UTF-8"?>
<svg id="Layer_2" data-name="Layer 2" xmlns="http://www.w3.org/2000/svg" xmlns:xlink="http://www.w3.org/1999/xlink" viewBox="0 0 422.38 507.85">
  <defs>
    <style>
      .cls-1 {
        fill: url(#linear-gradient-2);
      }

      .cls-2 {
        fill: url(#linear-gradient-4);
      }

      .cls-3 {
        fill: url(#linear-gradient-3);
      }

      .cls-4 {
        fill: #8cb9d7;
      }

      .cls-5 {
        fill: url(#linear-gradient);
      }
    </style>
    <linearGradient id="linear-gradient" x1="83.55" y1="81.36" x2="163.86" y2="81.36" gradientTransform="translate(93.77 -63.64) rotate(45)" gradientUnits="userSpaceOnUse">
      <stop offset=".04" stop-color="#79c0dd"/>
      <stop offset="1" stop-color="#70a3ce"/>
    </linearGradient>
    <linearGradient id="linear-gradient-2" x1="193.71" y1="105.99" x2="273.16" y2="30.1" gradientTransform="translate(115.53 -147.59) rotate(45)" gradientUnits="userSpaceOnUse">
      <stop offset=".04" stop-color="#8cb9d7" stop-opacity="0"/>
      <stop offset="1" stop-color="#8cb9d7"/>
    </linearGradient>
    <linearGradient id="linear-gradient-3" x1="288.81" y1="105.71" x2="385.58" y2="16.07" gradientTransform="translate(141.75 -220.73) rotate(45)" xlink:href="#linear-gradient-2"/>
    <linearGradient id="linear-gradient-4" x1="3.4" y1="408.91" x2="298.69" y2="412.43" gradientTransform="matrix(1,0,0,1,0,0)" xlink:href="#linear-gradient-2"/>
  </defs>
  <g id="Layer_1-2" data-name="Layer 1">
    <g>
      <g>
        <path class="cls-4" d="M324.18,146.76c-49.1,0-89.9,36.22-97.08,83.35h-31.82c-7.18-47.12-47.98-83.35-97.08-83.35C44.05,146.76,0,190.81,0,244.96s44.05,98.2,98.2,98.2c46.7,0,85.86-32.78,95.76-76.52h34.46c9.9,43.75,49.06,76.52,95.76,76.52,54.15,0,98.2-44.05,98.2-98.2s-44.05-98.2-98.2-98.2ZM98.2,306.63c-34.01,0-61.67-27.67-61.67-61.67s27.66-61.67,61.67-61.67,61.67,27.67,61.67,61.67-27.67,61.67-61.67,61.67ZM324.18,306.63c-34.01,0-61.67-27.67-61.67-61.67s27.66-61.67,61.67-61.67,61.67,27.67,61.67,61.67-27.66,61.67-61.67,61.67Z"/>
        <rect class="cls-5" x="85.18" y="63.1" width="77.04" height="36.53" transform="translate(-21.3 111.31) rotate(-45)"/>
        <rect class="cls-1" x="175.2" y="47.4" width="121.44" height="36.53" transform="translate(22.67 186.05) rotate(-45)"/>
        <rect class="cls-3" x="269.68" y="42.49" width="135.32" height="36.53" transform="translate(55.83 256.32) rotate(-45)"/>
      </g>
      <path class="cls-2" d="M320.02,318.52v121.4l-60.01-29.01-9.11,4.17c-15.73,7.2-32.55,10.85-49.99,10.85-61.98,0-113.16-47.12-119.62-107.42h-42.76c6.6,83.83,76.88,150.03,162.37,150.03,20.11,0,39.68-3.61,58.23-10.72l103.5,50.02v-189.33h-42.61Z"/>
    </g>
  </g>
</svg>